# xmcd
#
# Track frame offsets:
#	150
#	26375
#	35292
#	41035
#	48157
#	54745
#	58505
#	63350
#	71775
#	77965
#	84745
#	92240
#	97605
#	106965
#	117177
#	121255
#	127612
#	135152
#	142105
#	148385
#	160160
#	164715
#	171315
#	177910
#	184115
#	193377
#	202810
#	210985
#
# Disc length: 3142 seconds
#
# Revision: 1
# Processed by: cddbd v1.5.1PL0 Copyright (c) Steve Scherf et al.
# Submitted via: CDex 1.50Beta5
#
DISCID=8d0c441c
DTITLE=M Rie - 『in white』オリジナルサウンドトラック
DYEAR=2002
DGENRE=Game
TTITLE0=M Rie/in white
TTITLE1=メインテーマ
TTITLE2=東雲
TTITLE3=通学路
TTITLE4=校舎の中で
TTITLE5=黄色い弁当
TTITLE6=小さな棘
TTITLE7=夜の旋律
TTITLE8=黄昏の街
TTITLE9=雅のテーマ
TTITLE10=雅のテーマ(アレンジ)
TTITLE11=由梨子のテーマ
TTITLE12=美雪のテーマ
TTITLE13=旋律と悲しみと
TTITLE14=朱い夢
TTITLE15=傾慕の結末
TTITLE16=さつきのテーマ
TTITLE17=風花のテーマ
TTITLE18=風花のテーマ(アレンジ)
TTITLE19=切ない思い
TTITLE20=事件
TTITLE21=アクション
TTITLE22=穏やかな日常
TTITLE23=春愁
TTITLE24=陽だまりの中で
TTITLE25=戻せぬ思い
TTITLE26=メインテーマ(アレンジ)
TTITLE27=M Rie/spring has come
EXTD=
EXTT0=
EXTT1=
EXTT2=
EXTT3=
EXTT4=
EXTT5=
EXTT6=
EXTT7=
EXTT8=
EXTT9=
EXTT10=
EXTT11=
EXTT12=
EXTT13=
EXTT14=
EXTT15=
EXTT16=
EXTT17=
EXTT18=
EXTT19=
EXTT20=
EXTT21=
EXTT22=
EXTT23=
EXTT24=
EXTT25=
EXTT26=
EXTT27=
PLAYORDER=
